<?xml version="1.0" encoding="UTF-8" standalone="no"?><!-- Generator: Gravit.io --><svg xmlns="http://www.w3.org/2000/svg" xmlns:xlink="http://www.w3.org/1999/xlink" style="isolation:isolate" viewBox="0 0 512 512" width="512pt" height="512pt"><g><path d=" M 250.098 137.261 L 262.401 137.634 L 250.098 138.006 L 250.098 137.261 Z " fill="rgb(242,225,199)"/><path d=" M 253.08 118.62 L 255.317 119.366 L 256.809 119.366 Q 300.904 120.753 319.813 147.327 Q 328.26 157.893 333.607 171.559 Q 350.425 167.79 357.094 174.169 L 370.515 193.555 Q 377.386 197.496 374.989 210.704 Q 372.227 212.789 373.871 219.279 L 371.634 242.393 L 363.059 332.24 L 359.331 370.266 C 359.827 378.301 358.229 386.708 350.905 391.199 C 346.844 393.689 341.926 393.653 337.335 393.008 L 337.335 393.008 L 310.493 393.008 C 307.824 365.131 306.557 337.126 306.392 309.126 L 306.392 309.126 L 306.392 307.635 Q 303.739 280.003 319.44 270.726 Q 331.709 258.016 329.506 230.836 Q 326.595 211.006 315.712 199.147 L 314.594 198.774 L 314.221 197.656 Q 308.834 190.74 294.835 192.437 Q 284.056 195.079 278.804 203.248 Q 267.497 216.919 266.874 241.275 Q 267.806 262.711 279.923 272.963 Q 290.548 280.233 289.989 298.687 Q 287.565 300.365 289.243 306.143 L 288.497 323.292 C 288.744 346.583 287.598 369.926 284.396 393.008 L 284.396 393.008 L 230.339 392.635 Q 225.649 345.504 225.865 293.468 Q 229.183 280.755 238.914 274.455 Q 249.471 264.134 246.743 240.529 Q 244.58 228.524 245.251 213.687 Q 247.272 198.618 241.151 191.691 Q 235.186 190.573 234.067 194.301 Q 232.203 198.402 233.322 205.485 L 233.322 234.564 C 234.572 240.64 235.518 249.199 229.966 253.577 L 229.966 253.577 L 227.729 254.323 C 220.312 253.721 220.188 245.431 221.392 239.783 L 221.392 239.783 L 221.392 210.704 C 222.254 206.511 222.818 201.973 221.756 197.757 C 220.867 194.227 215.719 187.768 212.205 193.13 C 209.817 196.775 210.082 201.399 210.953 205.485 L 210.953 205.485 L 210.953 234.564 C 212.299 240.217 213.685 248.677 208.343 252.832 L 208.343 252.832 L 203.124 253.577 L 200.514 251.713 C 197.902 248.448 198.326 243.62 199.023 239.783 L 199.023 239.783 L 199.023 210.704 Q 202.938 195.605 195.668 191.691 Q 191.078 191.202 190.076 194.301 Q 186.569 223.228 186.348 255.441 Q 188.39 271.666 198.65 279.674 Q 208.903 286.571 206.479 306.143 Q 206.22 351.739 201.633 393.008 L 174.045 393.008 Q 158.622 395.01 154.286 385.924 Q 150.838 378.934 151.304 368.03 Q 147.99 350.839 148.321 330.003 Q 145.559 327.919 147.203 321.428 L 144.966 296.077 L 139.001 228.226 L 137.137 206.976 L 136.391 201.011 L 156.896 172.305 Q 161.991 169.198 172.554 171.559 Q 178.146 173.05 179.637 170.441 Q 187.182 148.907 203.124 135.77 Q 221.711 120.804 253.08 118.62 Z  M 246.37 138.006 C 251.07 137.706 254.888 137.672 259.799 137.858 C 281.685 138.688 303.176 149.502 310.866 171.186 L 310.866 171.186 L 201.633 171.559 L 202.006 170.441 C 208.753 151.315 227.175 141.089 246.37 138.006 L 246.37 138.006 Z " fill-rule="evenodd" fill="rgb(227,99,23)"/><path d=" M 311.239 138.006 L 317.204 144.717 L 311.239 138.006 Z  M 161.369 170.814 L 178.146 171.186 L 161.369 171.559 L 161.369 170.814 Z  M 333.607 170.814 L 351.129 171.186 L 333.607 171.559 L 333.607 170.814 Z  M 268.738 235.682 L 269.111 244.257 L 268.366 244.257 L 268.738 235.682 Z  M 186.72 243.139 L 187.093 255.441 L 186.348 255.441 L 186.72 243.139 Z  M 199.396 278.183 Q 198.029 280.419 201.633 282.656 Q 196.041 280.419 199.396 278.183 Z  M 289.616 291.604 L 289.989 297.941 L 289.243 297.941 L 289.616 291.604 Z  M 206.107 306.516 L 206.479 313.599 L 205.734 313.599 L 206.107 306.516 Z  M 226.238 306.516 L 226.611 314.345 L 225.865 314.345 L 226.238 306.516 Z  M 306.765 310.244 L 307.138 318.819 L 306.392 318.819 L 306.765 310.244 Z " fill-rule="evenodd" fill="rgb(242,225,199)"/></g></svg>