<?xml version="1.0" encoding="UTF-8" standalone="no"?><!-- Generator: Gravit.io --><svg xmlns="http://www.w3.org/2000/svg" xmlns:xlink="http://www.w3.org/1999/xlink" style="isolation:isolate" viewBox="0 0 512 512" width="512pt" height="512pt"><g><path d=" M 251.893 62.745 L 255.04 63.794 L 257.137 63.794 Q 319.168 65.745 345.768 103.127 Q 357.65 117.991 365.172 137.215 Q 388.83 131.912 398.212 140.886 L 417.091 168.157 Q 426.756 173.701 423.385 192.281 Q 419.499 195.213 421.811 204.343 L 418.665 236.859 L 406.603 363.249 L 401.358 416.741 C 402.056 428.044 399.808 439.87 389.505 446.188 C 383.792 449.691 376.875 449.64 370.416 448.732 L 370.416 448.732 L 332.657 448.732 C 328.902 409.517 327.12 370.123 326.888 330.733 L 326.888 330.733 L 326.888 328.636 Q 323.156 289.766 345.243 276.716 Q 362.501 258.836 359.403 220.601 Q 355.308 192.705 339.999 176.024 L 338.425 175.499 L 337.901 173.926 Q 330.323 164.198 310.63 166.584 Q 295.468 170.301 288.079 181.793 Q 272.173 201.023 271.297 235.285 Q 272.608 265.441 289.653 279.863 Q 304.599 290.089 303.812 316.049 Q 300.404 318.409 302.764 326.538 L 301.715 350.662 C 302.062 383.425 300.45 416.263 295.946 448.732 L 295.946 448.732 L 219.902 448.208 Q 213.305 381.908 213.609 308.707 Q 218.276 290.823 231.964 281.96 Q 246.815 267.443 242.977 234.236 Q 239.936 217.349 240.88 196.477 Q 243.722 175.28 235.111 165.535 Q 226.72 163.962 225.147 169.206 Q 222.524 174.975 224.098 184.939 L 224.098 225.845 C 225.856 234.392 227.188 246.433 219.378 252.592 L 219.378 252.592 L 216.231 253.641 C 205.797 252.795 205.622 241.133 207.316 233.188 L 207.316 233.188 L 207.316 192.281 C 208.529 186.383 209.321 179.998 207.829 174.069 C 206.578 169.102 199.335 160.016 194.393 167.559 C 191.033 172.687 191.406 179.191 192.631 184.939 L 192.631 184.939 L 192.631 225.845 C 194.525 233.798 196.474 245.699 188.96 251.543 L 188.96 251.543 L 181.618 252.592 L 177.947 249.97 C 174.272 245.376 174.868 238.585 175.849 233.188 L 175.849 233.188 L 175.849 192.281 Q 181.356 171.041 171.129 165.535 Q 164.672 164.847 163.263 169.206 Q 158.329 209.899 158.018 255.214 Q 160.892 278.038 175.325 289.303 Q 189.747 299.005 186.338 326.538 Q 185.973 390.678 179.52 448.732 L 140.712 448.732 Q 119.016 451.548 112.917 438.768 Q 108.065 428.935 108.721 413.595 Q 104.059 389.412 104.525 360.102 Q 100.64 357.17 102.952 348.04 L 99.806 312.378 L 91.414 216.93 L 88.792 187.037 L 87.743 178.646 L 116.588 138.264 Q 123.755 133.894 138.614 137.215 Q 146.481 139.313 148.578 135.642 Q 159.192 105.349 181.618 86.869 Q 207.765 65.816 251.893 62.745 Z  M 242.453 90.016 C 249.064 89.592 254.435 89.545 261.345 89.807 C 292.132 90.975 322.363 106.187 333.181 136.691 L 333.181 136.691 L 179.52 137.215 L 180.045 135.642 C 189.536 108.736 215.451 94.352 242.453 90.016 L 242.453 90.016 Z " fill-rule="evenodd" fill="rgb(255,255,255)"/></g></svg>